<svg xmlns="http://www.w3.org/2000/svg" viewBox="0 0 512 512">
  <!-- Background -->
  <rect width="512" height="512" rx="112" fill="#0e9f6e"/>

  <!-- QR Finder pattern top-left -->
  <rect x="96" y="96" width="130" height="130" rx="16" fill="white"/>
  <rect x="116" y="116" width="90" height="90" rx="10" fill="#0e9f6e"/>
  <rect x="136" y="136" width="50" height="50" rx="6" fill="white"/>

  <!-- QR Finder pattern top-right -->
  <rect x="286" y="96" width="130" height="130" rx="16" fill="white"/>
  <rect x="306" y="116" width="90" height="90" rx="10" fill="#0e9f6e"/>
  <rect x="326" y="136" width="50" height="50" rx="6" fill="white"/>

  <!-- QR Finder pattern bottom-left -->
  <rect x="96" y="286" width="130" height="130" rx="16" fill="white"/>
  <rect x="116" y="306" width="90" height="90" rx="10" fill="#0e9f6e"/>
  <rect x="136" y="326" width="50" height="50" rx="6" fill="white"/>

  <!-- QR data dots pattern (center area) -->
  <rect x="258" y="286" width="26" height="26" rx="6" fill="white"/>
  <rect x="296" y="286" width="26" height="26" rx="6" fill="white"/>
  <rect x="334" y="286" width="26" height="26" rx="6" fill="white"/>
  <rect x="372" y="286" width="26" height="26" rx="6" fill="white"/>
  <rect x="258" y="324" width="26" height="26" rx="6" fill="white"/>
  <rect x="334" y="324" width="26" height="26" rx="6" fill="white"/>
  <rect x="258" y="362" width="26" height="26" rx="6" fill="white"/>
  <rect x="296" y="362" width="26" height="26" rx="6" fill="white"/>
  <rect x="372" y="362" width="26" height="26" rx="6" fill="white"/>

  <rect x="258" y="172" width="26" height="26" rx="6" fill="white"/>
  <rect x="296" y="172" width="26" height="26" rx="6" fill="white"/>
  <rect x="258" y="210" width="26" height="26" rx="6" fill="white"/>
  <rect x="334" y="210" width="26" height="26" rx="6" fill="white"/>
  <rect x="372" y="210" width="26" height="26" rx="6" fill="white"/>

  <!-- Lightning bolt overlay (dynamic indicator) - bottom right area -->
  <polygon points="390,360 365,404 382,404 358,448 408,394 388,394" fill="#f4b75e"/>
</svg>
